<?xml version="1.0" encoding="utf-8"?>
<!-- Generator: Adobe Illustrator 23.0.1, SVG Export Plug-In . SVG Version: 6.00 Build 0)  -->
<svg version="1.1" id="Camada_1" xmlns="http://www.w3.org/2000/svg" xmlns:xlink="http://www.w3.org/1999/xlink" x="0px" y="0px"
	 viewBox="0 0 75 75" style="enable-background:new 0 0 75 75;" xml:space="preserve">
<style type="text/css">
	.st0{fill:#00EA9C;}
	.st1{fill:#FBFBFB;}
	.st2{fill:#00E99B;}
	.st3{fill:#1D232E;}
	.st4{fill:#1D242F;}
	.st5{fill:#1B2B33;}
	.st6{fill:#2F343E;}
	.st7{fill:#282C37;}
	.st8{fill:#212631;}
	.st9{fill:#282D38;}
	.st10{fill:#2C313B;}
	.st11{fill:#C4C5C8;}
	.st12{fill:#BBBDC0;}
	.st13{fill:#3B414A;}
	.st14{fill:#4C5159;}
	.st15{fill:#1D242E;}
</style>
<path class="st0" d="M44.5,29c-9.8,0-19.6-0.2-29.3-1.8c-3-0.5-4.9-1.9-5.7-4.8c-0.3-1.2-0.2-2.4,1.1-2.9c1.2-0.4,1.9,0.4,2.2,1.4
	c0.6,1.8,1.8,3.1,3.6,2.6c1.8-0.4,1.4-2.5,1.6-3.8c0.7-4.6,1.5-9.2,5.4-12.5c5.4-4.5,22-4.5,27.4-0.1c3.8,3.1,4.4,7.6,5.4,12
	c0.4,1.6-0.7,4.1,2,4.4c2.3,0.3,2.9-1.6,3.6-3.4c0.2-0.5,1-0.8,1.6-1.1c2.4,3.5,1.3,6.9-2.8,7.9c-2,0.5-4.1,0.8-6.2,1.2
	c-2.4,1-4.9-0.2-7.3,0.8C46.3,29,45.4,29,44.5,29z"/>
<path class="st1" d="M17.7,50c-0.7-1.1-1.5-2.2-2.1-3.4C11.2,38,14.6,32.1,24.2,32c9.4-0.2,18.9-0.1,28.3-0.1
	c3.9,0.8,7.7,1.9,7.9,6.8c0.2,5.1-1.1,9.7-5.8,12.4c-4.1,2.4-7.7,0.3-10.9-2.2c-2.1-1.7-3.7-3.7-4.6-6.4c-0.3-1-0.2-2.6-1.9-2.6
	c-1.6,0-1.5,1.4-1.9,2.5c-1.5,4.3-4.6,7.2-8.8,9C23.3,52.8,20.5,51.8,17.7,50z"/>
<path class="st2" d="M44.5,71.3c-4.4-3.7-9.9-1.4-15.7-0.2c-5.7,1.1-12.2-6.3-11.9-12.2c0-0.6,0.3-1.3,0.8-1.6
	c1.2-0.8,2.2-0.2,3.1,0.7c2.8,3.2,4.5,2.5,6.7-1.1c3.7-5.9,15.8-5.9,19.5,0c2.1,3.5,3.8,4.3,6.7,1.2c0.8-0.9,1.9-1.6,3.1-0.9
	c1.3,0.8,0.7,2,0.5,3.1C55.6,67.4,51.5,71.4,44.5,71.3z"/>
<path class="st3" d="M47.2,29c2.4-1,4.8-0.8,7.3-0.8C52.2,29.8,49.6,28.8,47.2,29z"/>
<path class="st4" d="M37.8,18c-4-0.3-8.5-0.6-13-0.8c-2.1-0.1-2.6-1-1.8-2.9c1.7-4.3,4.9-6.7,9.6-6.4c6.6,0.5,14.4-2.7,18.5,5.7
	c1.2,2.5,0.3,3.6-2.5,3.7C45.2,17.4,41.7,17.7,37.8,18z"/>
<path class="st5" d="M37,21c4.1,0,8.3,0,12.4,0c1.4,0,3.2-0.5,3.5,1.7c0.2,2.1-1.7,1.8-2.8,1.9c-8.6,0.9-17.2,0.8-25.8,0
	c-1.2-0.1-2.9,0-2.7-2c0.2-2,1.8-1.6,3-1.6C28.7,21,32.9,21,37,21C37,21,37,21,37,21z"/>
<path class="st6" d="M46.5,39.1c-1.4,1.1-2.7,2.2-4.5,3.7c-0.8-2.5-1.2-4.6,0.6-6.1c3.8-3.2,8.2-2.5,12.9-1.3
	c-1.7,3.4-4.9,4.9-7.4,7.2c-0.8,0.8-0.6-0.9-0.6-1.5C47.9,40,48.9,38.8,46.5,39.1z"/>
<path class="st7" d="M57.5,38.6c0.4,6.9-2.8,11.4-7.6,10.6c-2-0.4-2.8-1-1.1-2.8c2.2-2.2,4.4-4.5,6.6-6.7
	C56,39.2,56.5,38.4,57.5,38.6z"/>
<path class="st8" d="M20.5,48.6c4.6-3.7,8.6-6.8,12.5-9.9c0.8,1.3,0.1,3.8-1.7,6C28.8,47.5,26.1,50.1,20.5,48.6z"/>
<path class="st9" d="M27.7,34.9c0.6,0.2,2.4-0.4,1.1,1.3c-0.7,1-1.6,1.9-2.5,2.8c-0.6,0.3-1.2,0.1-1.8-0.1c-1.4-0.8-2.7-0.7-3.9,0.3
	c-1.3,0.6-1.8,2.4-3.8,2.5c-0.9-3.9,0.3-6.3,4.5-6.7C23.4,34.3,25.5,34.3,27.7,34.9z"/>
<path class="st10" d="M37.2,34.2c1.2,0.5,2.9-0.6,2.9,1.3c0,1.2-1.3,1.7-2.6,1.6c-1.3-0.1-3,0.1-2.9-1.8
	C34.7,33.6,36.5,35,37.2,34.2z"/>
<path class="st11" d="M46.5,39.1c0.3-0.4,0.7-0.7,1-1.1c0.7-0.9,1.4-2.5,2.5-1.6c1.3,1,0.5,2.2-1,2.9c-0.6,0.3-1,1.2-1.5,1.8
	C47.2,40.4,46.9,39.8,46.5,39.1z"/>
<path class="st12" d="M20.6,39.1c1.8,0.6,1.9-6.3,4.8-1.1c-0.6,1.4-1.5,2.1-3.1,1.1C21.8,39.1,21.2,39.1,20.6,39.1z"/>
<path class="st13" d="M22.4,39c1.2,0.2,2.1-0.4,3.1-1.1c0.3,0.3,0.6,0.7,0.9,1c-0.5,1.5-1.5,3-3.2,2.8C21.7,41.7,22.8,40,22.4,39z"
	/>
<path class="st14" d="M27.7,34.9c-2.1,0-4.3,0-6.4,0C23.4,34,25.5,33.9,27.7,34.9z"/>
<path class="st15" d="M23.2,64.5c2.3-0.7,4.8-0.9,5.5-2.8c1.9-5.5,6.3-4.9,10.6-5c2.2,0,4.1,0.6,4.9,2.7c1.3,3.2,3.9,4.4,7,5
	c-3.7,4.2-7.8,4.4-11.2,0.1c-2.3-2.9-3.4-2.6-5.6,0C31,68.8,27.5,68.7,23.2,64.5z"/>
</svg>
